<svg width="600" height="600" viewBox="0 0 600 600" fill="none" xmlns="http://www.w3.org/2000/svg">
<circle cx="272.631" cy="160.985" r="110.985" fill="#74A4D1"/>
<path fill-rule="evenodd" clip-rule="evenodd" d="M473.254 511.015C473.254 511.015 473.254 511.015 473.254 511.015V511.015C473.254 388.424 383.43 289.045 272.627 289.045C161.824 289.045 72 388.424 72 511.015V511.015C72 511.015 72.0001 511.015 72.0003 511.015H473.254Z" fill="#74A4D1"/>
<path fill-rule="evenodd" clip-rule="evenodd" d="M523.384 412.007L495.154 406.992C493.381 400.896 491.22 395.536 487.632 389.829L504.449 365.533C505.875 363.761 505.875 360.518 503.757 358.4L483.741 338.384C481.579 336.223 478.38 336.223 476.219 337.692L452.269 354.466C446.908 350.878 440.856 349.105 435.106 346.944L430.091 318.714C429.399 316.207 426.503 314.045 423.996 314.045H395.42C392.912 314.045 390.059 316.207 389.713 318.714L384.353 347.679C378.992 349.105 372.551 351.613 367.925 354.466L343.975 338.384C341.813 336.223 338.614 336.957 336.453 339.119L316.437 359.135C314.275 361.297 314.275 364.496 315.702 366.268L331.784 389.872C328.931 395.579 326.769 400.939 324.996 407.035L296.767 412.05C294.259 412.05 292.098 414.903 292.098 417.756V446.721C292.098 449.229 294.259 451.736 296.767 451.736L324.996 457.442C326.769 463.495 328.931 468.899 332.519 473.87L316.437 497.474C314.275 499.636 315.01 503.181 317.172 504.953L337.188 525.315C339.349 527.088 342.548 527.823 344.667 526.05L367.882 509.968C373.242 513.167 378.949 514.983 384.309 516.41L389.67 545.374C390.016 548.228 392.912 550 395.377 550H423.952C426.46 550 429.313 548.228 430.048 545.374L435.063 517.144C440.769 514.983 446.865 513.21 452.225 510.703L475.83 526.439C477.602 527.866 480.844 527.866 482.963 526.093L502.979 505.731C505.14 503.57 505.832 500.371 503.714 498.209L487.632 473.913C491.22 468.899 493.338 463.538 495.154 457.486L523.384 451.779C525.891 451.779 528.053 449.272 528.053 446.764V417.8C528.053 414.946 525.891 412.093 523.384 412.093V412.007ZM410.421 481.349C382.883 481.349 360.749 459.172 360.749 432.368C360.749 405.565 382.926 382.696 410.421 382.696C437.916 382.696 459.402 404.873 459.402 432.368C459.402 459.863 437.224 481.349 410.421 481.349Z" fill="#C4C4C4" stroke="white" stroke-width="4"/>
</svg>
